Coordinates
version=1
nRows=60
nColumns=12
inDegrees=yes

Units are S.I. units (second, meters, Newtons, ...)
Angles are in degrees

endheader
time	SC_y	SC_z	SC_x	AC_y	AC_z	AC_x	GH_y	GH_z	GH_yy	EL_x	PS_y
       0.0              -24.82          34.48          16.92          46.98         -6.335         -6.525           32.3          39.89         -30.67          70.39          58.59
   0.04622              -24.83          34.48          16.92          46.98         -6.335         -6.525          32.29          39.89         -30.67           70.4           58.6
   0.09245              -24.83          34.47          16.92          46.98         -6.334         -6.524          32.28           39.9         -30.68          70.41          58.61
    0.1387              -24.84          34.47          16.91          46.98         -6.334         -6.524          32.27           39.9         -30.69          70.41          58.62
    0.1849              -24.84          34.46          16.91          46.98         -6.333         -6.524          32.26           39.9          -30.7          70.42          58.63
    0.2311              -24.85          34.46          16.91          46.98         -6.333         -6.524          32.24          39.91         -30.71          70.43          58.65
    0.2773              -24.86          34.46           16.9          46.98         -6.332         -6.524          32.23          39.91         -30.72          70.44          58.66
    0.3236              -24.86          34.45           16.9          46.98         -6.332         -6.524          32.21          39.92         -30.73          70.46          58.67
    0.3698              -24.87          34.45           16.9          46.98         -6.331         -6.524          32.19          39.92         -30.74          70.47          58.69
     0.416              -24.88          34.44          16.89          46.98          -6.33         -6.523          32.18          39.93         -30.76          70.48          58.71
    0.4622              -24.88          34.44          16.89          46.97          -6.33         -6.523          32.16          39.94         -30.77          70.49          58.72
    0.5085              -24.89          34.43          16.88          46.97         -6.329         -6.523          32.13          39.94         -30.78          70.51          58.74
    0.5547               -24.9          34.42          16.88          46.97         -6.328         -6.523          32.11          39.95          -30.8          70.53          58.76
    0.6009              -24.91          34.42          16.87          46.97         -6.327         -6.522          32.09          39.96         -30.82          70.54          58.78
    0.6471              -24.92          34.41          16.87          46.97         -6.326         -6.522          32.06          39.97         -30.84          70.56          58.81
    0.6934              -24.94           34.4          16.86          46.97         -6.325         -6.522          32.03          39.98         -30.86          70.58          58.83
    0.7396              -24.95          34.39          16.85          46.96         -6.324         -6.521           32.0          39.99         -30.88           70.6          58.86
    0.7858              -24.96          34.38          16.85          46.96         -6.322         -6.521          31.97           40.0          -30.9          70.63          58.89
     0.832              -24.98          34.37          16.84          46.96         -6.321         -6.521          31.93          40.01         -30.93          70.66          58.92
    0.8782               -25.0          34.36          16.83          46.96         -6.319          -6.52          31.89          40.03         -30.96          70.68          58.96
    0.9245              -25.02          34.35          16.82          46.95         -6.317          -6.52          31.84          40.04         -30.99          70.72           59.0
    0.9707              -25.04          34.33          16.81          46.95         -6.315         -6.519          31.79          40.06         -31.02          70.75          59.04
     1.017              -25.06          34.32           16.8          46.95         -6.313         -6.519          31.74          40.08         -31.06          70.79          59.09
     1.063              -25.08           34.3          16.78          46.94         -6.311         -6.518          31.68           40.1          -31.1          70.83          59.14
     1.109              -25.11          34.28          16.77          46.94         -6.308         -6.517          31.61          40.12         -31.15          70.88           59.2
     1.156              -25.14          34.26          16.75          46.93         -6.305         -6.517          31.54          40.14          -31.2          70.93          59.27
     1.202              -25.18          34.24          16.73          46.93         -6.302         -6.516          31.45          40.17         -31.26          70.99          59.34
     1.248              -25.22          34.21          16.71          46.92         -6.299         -6.515          31.36           40.2         -31.32          71.06          59.43
     1.294              -25.26          34.18          16.69          46.92         -6.294         -6.514          31.25          40.24          -31.4          71.14          59.52
      1.34              -25.31          34.15          16.66          46.91          -6.29         -6.512          31.13          40.28         -31.48          71.22          59.63
     1.387              -25.37          34.11          16.63           46.9         -6.284         -6.511          30.99          40.33         -31.58          71.32          59.75
     1.433              -25.44          34.06          16.59          46.89         -6.278         -6.509          30.83          40.38         -31.69          71.43          59.89
     1.479              -25.52          34.01          16.55          46.88         -6.271         -6.507          30.65          40.44         -31.81          71.56          60.05
     1.525              -25.61          33.95           16.5          46.86         -6.263         -6.505          30.43          40.51         -31.96          71.71          60.24
     1.572              -25.71          33.88          16.45          46.85         -6.253         -6.502          30.18           40.6         -32.13          71.89          60.46
     1.618              -25.83           33.8          16.38          46.83         -6.241         -6.499          29.89          40.69         -32.34           72.1          60.72
     1.664              -25.98           33.7           16.3          46.81         -6.228         -6.496          29.54          40.81         -32.58          72.35          61.03
      1.71              -26.16          33.58          16.21          46.78         -6.212         -6.491          29.12          40.95         -32.87          72.64           61.4
     1.756              -26.37          33.44           16.1          46.75         -6.192         -6.486          28.61          41.12         -33.22           73.0          61.85
     1.803              -26.63          33.27          15.96          46.71         -6.168         -6.479          27.99          41.33         -33.65          73.44           62.4
     1.849              -26.95          33.05          15.79          46.66         -6.138         -6.471          27.23          41.58         -34.18          73.98          63.07
     1.895              -27.35          32.79          15.58           46.6         -6.101         -6.461          26.27           41.9         -34.84          74.66          63.91
     1.941              -27.85          32.45          15.31          46.52         -6.054         -6.448          25.07           42.3         -35.67          75.51          64.98
     1.988              -28.49          32.02          14.97          46.43         -5.995         -6.432          23.54          42.81         -36.73          76.59          66.32
     2.034              -29.31          31.47          14.53           46.3         -5.919         -6.412          21.59          43.46         -38.08          77.98          68.05
      2.08              -30.36          30.77          13.97          46.14         -5.821         -6.385          19.08           44.3         -39.82          79.76          70.27
     2.126               -31.7          29.87          13.25          45.94         -5.697         -6.352          15.87          45.37         -42.04          82.03          73.09
     2.173              -33.38          28.73          12.35          45.69          -5.54         -6.309          11.84          46.72         -44.83          84.88          76.65
     2.219              -35.44          27.36          11.26          45.37         -5.349         -6.257          6.925          48.36         -48.23          88.36          80.99
     2.265              -37.82          25.76          9.987          45.01         -5.128         -6.197           1.23          50.26         -52.17          92.39          86.01
     2.311               -40.4          24.03           8.61          44.62         -4.888         -6.132         -4.936          52.31         -56.44          96.76          91.45
     2.357              -42.98           22.3          7.234          44.23         -4.649         -6.067          -11.1          54.37         -60.71          101.1          96.89
     2.404              -45.36           20.7          5.963          43.87         -4.428         -6.007          -16.8          56.27         -64.65          105.2          101.9
      2.45              -47.42          19.32          4.867          43.56         -4.237         -5.956         -21.71          57.91         -68.05          108.6          106.3
     2.496               -49.1          18.19          3.967           43.3          -4.08         -5.913         -25.74          59.26         -70.84          111.5          109.8
     2.542              -50.44          17.29          3.251           43.1         -3.956         -5.879         -28.95          60.32         -73.06          113.8          112.6
     2.589              -51.49          16.58          2.691          42.94         -3.858         -5.853         -31.46          61.16         -74.79          115.5          114.9
     2.635              -52.31          16.03          2.254          42.82         -3.782         -5.832         -33.41          61.82         -76.15          116.9          116.6
     2.681              -52.95           15.6          1.913          42.72         -3.723         -5.816         -34.94          62.32         -77.21          118.0          117.9
     2.727              -53.45          15.27          1.645          42.64         -3.676         -5.803         -36.14          62.73         -78.04          118.9          119.0
